<svg width="938" height="930" viewBox="0 0 938 930" fill="none" xmlns="http://www.w3.org/2000/svg">
<g clip-path="url(#clip0_12_2)">
<path d="M670.791 47.9247V635.535H290.852V33.7097C351.626 9.25174 416.872 -2.12335 482.336 0.325947C547.801 2.77524 612.014 18.9939 670.791 47.9247Z" fill="white"/>
<path d="M382.282 315.889C392.589 298.841 404.802 280.64 423.929 275.074C446.079 268.627 468.833 281.433 488.133 294.07C545.853 331.861 601.438 372.817 654.634 416.749L654.576 417.411C613.161 414.555 571.746 411.698 530.331 408.842C500.408 406.779 469.458 404.431 443.015 390.275C432.981 384.903 423.199 377.728 411.829 377.228C397.702 376.607 385.385 386.473 375.705 396.782C318.445 457.758 301.875 551.005 237.635 604.577C278.143 504.674 326.51 408.142 382.282 315.889Z" fill="#F2F2F2"/>
<path d="M698.581 62.9124C697.62 62.2718 696.649 61.6643 695.688 61.0458C667.911 43.2806 638.139 28.8483 606.987 18.0472L599.764 117.696H553.973V3.50079C551.09 2.90435 548.185 2.34105 545.28 1.81089V117.696H490.863C460.906 117.696 432.175 105.795 410.992 84.6114C389.809 63.4277 377.908 34.6963 377.908 4.73797C374.993 5.36754 372.099 6.04118 369.205 6.75912V117.696H324.883L318.002 22.6751C285.988 34.9532 255.596 51.0994 227.501 70.7544C227.015 71.0858 226.529 71.4282 226.054 71.7595C223.614 73.4715 221.206 75.2166 218.809 76.9839V631.658H349.435L347.127 599.682L334.425 249.608H590.21L577.509 599.682L575.201 631.658H704.38V66.7562C702.458 65.4528 700.525 64.1716 698.581 62.9124ZM369.205 220.614H332.327L325.512 126.4H369.205V220.614ZM545.28 220.614H483.342V218.748C483.342 217.85 483.165 216.962 482.821 216.133C482.477 215.304 481.974 214.551 481.339 213.917C480.704 213.283 479.95 212.781 479.12 212.438C478.291 212.096 477.402 211.92 476.505 211.922H449.578C448.681 211.921 447.794 212.098 446.965 212.441C446.137 212.784 445.384 213.286 444.751 213.92C444.117 214.554 443.614 215.307 443.271 216.135C442.928 216.963 442.752 217.851 442.752 218.748V220.614H377.908V126.4H545.28V220.614ZM553.973 220.614V126.4H599.135L592.32 220.614H553.973Z" fill="#3D33D5" fill-opacity="0.93"/>
<path d="M903.383 620.346C903.372 620.379 903.361 620.401 903.35 620.434C903.273 620.666 903.196 620.876 903.107 621.108V621.119C899.341 631.7 895.203 642.104 890.693 652.332L38.8787 651.404C34.3062 640.967 30.1092 630.338 26.2877 619.517C26.2753 619.493 26.2678 619.467 26.2656 619.44L903.383 620.346Z" fill="#3D33D5" fill-opacity="0.93"/>
<path d="M585.052 623.979H435.948V643.861H585.052V623.979Z" fill="white"/>
<path d="M238.577 818.674C239.108 814.002 239.84 809.359 240.775 804.746C245.886 779.732 256.856 756.286 272.783 736.333C281.895 736.841 289.88 735.449 290.642 717.799C290.786 714.662 293.116 711.934 293.624 708.841C292.763 708.963 291.868 709.029 291.007 709.084C290.731 709.095 290.443 709.118 290.178 709.129H290.079C289.123 709.173 288.174 708.94 287.347 708.457C286.52 707.975 285.851 707.263 285.42 706.408C284.989 705.553 284.814 704.591 284.918 703.639C285.022 702.687 285.399 701.786 286.003 701.044C286.379 700.591 286.754 700.127 287.13 699.663C287.693 698.945 288.279 698.249 288.853 697.542C288.919 697.465 288.974 697.399 289.041 697.321C289.692 696.515 290.344 695.709 291.007 694.902C289.809 693.044 288.199 691.486 286.302 690.352C279.73 686.497 270.662 689.17 265.913 695.112C261.153 701.055 260.247 709.405 261.904 716.827C263.318 723.189 266.399 729.021 269.856 734.565C269.503 735.018 269.127 735.46 268.774 735.924C262.26 744.303 256.582 753.3 251.82 762.786C253.167 752.26 236.7 714.265 230.327 706.213C222.673 696.548 206.989 700.767 205.642 713.027C205.631 713.138 205.609 713.259 205.598 713.381C206.548 713.911 207.475 714.474 208.381 715.082C209.519 715.842 210.4 716.928 210.91 718.198C211.42 719.468 211.534 720.862 211.238 722.198C210.942 723.534 210.249 724.75 209.251 725.685C208.252 726.621 206.994 727.233 205.642 727.441L205.498 727.463C192.841 745.544 233.43 792.607 243.603 782.048C241.045 789.235 239.004 796.595 237.495 804.072C236.14 810.668 235.196 817.341 234.668 824.053C234.023 832.506 234.064 840.998 234.789 849.445C234.769 849.347 234.754 849.247 234.745 849.147C232.481 830.746 193.747 803.387 182.437 805.663C175.921 806.977 169.504 806.679 170.498 813.251C170.509 813.361 170.531 813.461 170.542 813.571C172.298 814.28 174.006 815.103 175.655 816.034C176.605 816.564 177.533 817.139 178.439 817.735C179.504 818.447 180.346 819.446 180.868 820.617C181.391 821.787 181.571 823.081 181.39 824.35C181.209 825.618 180.673 826.81 179.844 827.787C179.015 828.765 177.927 829.488 176.705 829.874C181.509 833.662 186.387 837.366 191.339 840.985C192.123 841.559 192.907 842.134 193.703 842.686C200.164 847.347 206.754 851.839 213.473 856.161C221.668 861.44 230.04 866.47 238.588 871.249C239.759 871.9 240.93 872.552 242.112 873.192C239.14 860.967 237.635 848.431 237.628 835.849C237.625 830.111 237.942 824.377 238.577 818.674ZM244.619 779.21L244.641 779.177C244.64 779.197 244.633 779.217 244.619 779.232V779.21ZM235.816 858.635L235.474 857.873C235.485 857.31 235.485 856.757 235.474 856.183C235.474 856.028 235.441 855.874 235.441 855.719C235.573 856.702 235.684 857.685 235.827 858.668L235.816 858.635ZM286.545 860.137C286.666 859.629 286.766 859.276 286.887 858.768C286.843 858.657 286.799 858.547 286.754 858.447C283.077 849.689 263.66 867.35 255.266 880.129C265.096 885.099 275.121 889.731 285.341 894.024C286.026 893.162 286.732 892.312 287.428 891.45C287.494 891.373 287.55 891.306 287.605 891.229C289.107 889.374 290.62 887.54 292.111 885.685C292.122 885.32 292.122 884.956 292.122 884.602C292.107 879.282 291.455 873.983 290.178 868.819C289.152 868.866 288.137 868.597 287.269 868.048C286.401 867.498 285.723 866.696 285.326 865.748C284.93 864.801 284.834 863.755 285.052 862.751C285.27 861.747 285.791 860.835 286.545 860.137Z" fill="white"/>
<path d="M525.462 630.262C528.114 632.091 531.134 633.316 534.311 633.852C537.488 634.387 540.744 634.219 543.849 633.361C546.954 632.502 549.832 630.972 552.282 628.88C554.733 626.788 556.694 624.185 558.029 621.253L635.999 628.546L616.857 592.634L545.75 591.214C540.676 589.297 535.075 589.309 530.009 591.247C524.943 593.184 520.763 596.913 518.263 601.726C515.762 606.539 515.113 612.102 516.44 617.361C517.767 622.621 520.977 627.211 525.462 630.262Z" fill="#FFB6B6"/>
<path d="M604.522 627.803L712.419 639.9L712.791 639.424C713.502 638.515 784.102 548.141 795.964 526.627C803.262 513.702 805.919 498.669 803.496 484.025L803.415 483.667L803.134 483.43C797.382 478.609 790.159 475.893 782.657 475.728C775.154 475.564 767.819 477.961 761.861 482.525C733.215 504.712 710.117 533.253 694.391 565.897L685.467 584.476L604.522 592.459V627.803Z" fill="#3D33D5"/>
<path d="M516.985 880.562L496.198 928.962C493.216 929.172 490.231 929.341 487.241 929.47C484.878 929.591 482.525 929.68 480.15 929.746L479.344 930L478.681 929.79C475.49 929.89 472.287 929.952 469.073 929.978C467.714 929.989 466.356 930 464.986 930C464.345 930 463.705 930 463.064 929.989L464.445 925.262L466.068 919.662L472.519 897.483L481.829 865.464L495.679 871.406L516.985 880.562Z" fill="#FFB6B6"/>
<path d="M666.762 884.052C656.082 889.21 645.185 893.956 634.07 898.289L623.202 880.01L658.236 864.624L666.762 884.052Z" fill="#FFB6B6"/>
<path d="M740.685 800.971V839.474C734.223 844.246 727.633 848.848 720.915 853.281V800.971H740.685Z" fill="#CACACA"/>
<path d="M810.134 776.584C804.579 782.747 798.857 788.752 792.971 794.598C779.115 808.397 764.404 821.309 748.924 833.256H660.787C658.447 833.256 656.134 832.757 654.003 831.791C651.871 830.825 649.971 829.416 648.428 827.656L648.417 827.623C646.579 825.549 645.302 823.04 644.706 820.333L644.695 820.311C644.446 819.149 644.32 817.965 644.319 816.777V793.063C644.322 788.695 646.058 784.507 649.145 781.417C652.232 778.328 656.419 776.589 660.787 776.584H810.134Z" fill="#3D33D5" fill-opacity="0.93"/>
<path d="M846.449 684.026L836.895 724.959C837.83 730.889 838.141 736.901 837.823 742.896C833.295 748.971 828.623 754.924 823.807 760.756C819.367 766.135 814.81 771.411 810.134 776.584C804.579 782.747 798.857 788.752 792.971 794.598C777.64 799.414 759.571 801.38 740.685 801.512C734.168 801.568 727.553 801.391 720.915 801.037C693.999 799.624 666.773 795.305 644.474 790.821C638.576 789.65 633.032 788.457 627.929 787.297C618.265 785.121 610.18 783.089 604.326 781.543C597.733 779.82 593.977 778.704 593.977 778.704L568.895 820.709L546.121 858.836L516.775 896.29C513.969 896.544 511.16 896.758 508.348 896.931C505.366 897.141 502.38 897.31 499.39 897.439C497.027 897.561 494.674 897.649 492.3 897.715L491.493 897.969L490.831 897.759L480.183 894.369L476.594 893.231L463.683 889.122C463.683 889.122 466.565 880.043 471.613 864.9C473.468 859.345 486.612 818.268 500.362 782.404C504.438 771.757 508.657 760.955 512.997 750.208C516.554 741.383 520.176 732.591 523.843 723.921C530.216 708.888 561.009 700.781 597.269 696.529C599.113 696.319 600.969 696.109 602.835 695.91C621.313 693.966 640.917 692.961 659.252 692.497C668.43 692.265 677.288 692.177 685.527 692.166C688.189 692.166 690.777 692.173 693.292 692.188H693.303C700.095 692.221 706.347 692.321 711.847 692.431C712.918 692.453 713.956 692.486 714.972 692.508H714.983C715.668 692.519 716.342 692.541 717.005 692.552C729.032 692.862 736.41 693.237 736.41 693.237L739.271 670.794L739.856 666.265L740.408 661.958V661.947L740.475 661.405L740.928 661.394L748.88 661.24L815.722 659.936L844.193 658.73L846.449 684.026Z" fill="black"/>
<path d="M665.062 865.607C662.333 866.999 659.583 868.368 656.822 869.694C646.142 874.852 635.244 879.598 624.13 883.931C620.96 885.179 617.779 886.383 614.565 887.543C614.212 887.046 613.847 886.549 613.483 886.052C598.152 865.011 588.61 851.602 568.895 820.709C560.645 807.786 552.35 794.311 544.298 780.549L602.592 753.334L609.131 750.285L627.929 787.297L644.695 820.311L648.428 827.656L665.062 865.607Z" fill="black"/>
<path d="M759.618 419.773C789.278 419.773 813.323 395.728 813.323 366.066C813.323 336.404 789.278 312.358 759.618 312.358C729.957 312.358 705.912 336.404 705.912 366.066C705.912 395.728 729.957 419.773 759.618 419.773Z" fill="#FFB6B6"/>
<path d="M855.484 533.006C855.042 488.649 856.345 501.494 852.833 486.219C843.401 445.153 804.247 437.665 797.421 436.737C796.694 434.801 795.577 433.036 794.138 431.551C792.7 430.066 790.971 428.892 789.06 428.104C787.149 427.316 785.095 426.929 783.028 426.968C780.961 427.007 778.924 427.471 777.044 428.332L763.977 435.108C751.308 440.907 758.997 449.284 754.623 462.505L750.028 476.532L712.377 580.61L719.998 620.207L720.009 620.229L725.145 646.903L740.373 664.252L740.088 661.483L739.746 662.013L739.735 662.024L738.851 663.338C740.077 664.012 741.292 664.675 742.485 665.337C745.578 667.038 748.593 668.706 751.531 670.341C752.237 670.738 752.933 671.125 753.629 671.523H753.64C754.082 671.766 754.524 672.009 754.954 672.252C765.977 678.415 725.178 689.637 734.246 694.905C735.505 695.634 736.753 696.363 737.979 697.081C779.728 721.502 813.039 751.92 823.807 760.756C828.623 754.924 833.295 748.971 837.823 742.896C841.932 737.407 845.912 731.821 849.763 726.141C850.436 721.7 850.889 717.26 851.331 712.909C851.861 707.673 849.1 659.174 850.028 653.839C850.436 651.476 848.868 649.234 847.355 647.069C845.952 645.048 844.627 643.148 844.903 641.358C845.19 639.514 847.222 637.504 849.199 635.549C851.353 633.406 853.584 631.197 853.904 628.866C854.788 622.372 851.154 615.855 851.839 609.317C852.965 598.68 853.831 588.011 854.434 577.308C855.285 562.53 855.635 547.762 855.484 533.006Z" fill="#3D33D5"/>
<path d="M552.566 641.789C554.783 639.452 557.486 637.629 560.484 636.45C563.482 635.27 566.702 634.762 569.917 634.962C573.132 635.161 576.265 636.063 579.094 637.605C581.923 639.146 584.38 641.289 586.291 643.882L661.077 620.653L649.759 659.743L580.477 675.809C575.907 678.731 570.424 679.876 565.068 679.025C559.711 678.175 554.852 675.39 551.411 671.196C547.971 667.003 546.188 661.693 546.401 656.273C546.614 650.854 548.807 645.7 552.566 641.789Z" fill="#FFB6B6"/>
<path d="M643.232 663.414L782.045 634.795L746.019 643.718C746.428 642.638 786.917 535.341 791.835 511.271C794.953 496.759 793.015 481.617 786.341 468.359L786.157 468.041L785.818 467.898C778.892 465.009 771.188 464.566 763.977 466.643C756.765 468.72 750.477 473.193 746.148 479.324C725.407 509.034 711.855 543.159 706.562 579.004L703.575 599.398L654.634 614.039L643.232 663.414Z" fill="#3D33D5"/>
<path d="M384.536 619.707C385.023 621.124 385.946 622.35 387.173 623.21C388.4 624.069 389.867 624.518 391.365 624.491L420.625 623.738C422.133 623.709 423.592 623.192 424.783 622.265C425.974 621.338 426.832 620.05 427.23 618.594L431.371 574.318C432.84 574.983 434.439 575.312 436.052 575.279C438.881 575.208 441.566 574.016 443.516 571.966C445.466 569.915 446.522 567.173 446.451 564.344C446.38 561.515 445.188 558.83 443.137 556.879C441.087 554.929 438.345 553.873 435.516 553.944C434.872 553.942 434.229 554.009 433.598 554.143C432.913 553.402 432.08 552.812 431.153 552.412C430.226 552.012 429.225 551.811 428.215 551.821L383.207 552.983C382.834 552.997 382.463 553.043 382.097 553.121C381.11 553.305 380.174 553.698 379.352 554.274C378.53 554.85 377.84 555.596 377.33 556.461C376.82 557.326 376.501 558.29 376.395 559.288C376.289 560.287 376.398 561.296 376.715 562.249L384.536 619.707ZM432.22 571.311L435.166 560.76C435.502 559.541 435.509 558.256 435.189 557.033C435.332 557.033 435.458 556.965 435.601 556.964C437.621 556.923 439.575 557.684 441.035 559.081C442.495 560.478 443.342 562.397 443.389 564.417C443.436 566.437 442.681 568.393 441.288 569.857C439.895 571.321 437.978 572.173 435.958 572.226C434.652 572.266 433.36 571.95 432.22 571.311Z" fill="black"/>
<path d="M382.097 553.121C383.056 558.604 393.837 562.458 406.8 561.788C418.72 561.239 428.467 557.053 430.252 552.092C429.591 551.897 428.904 551.805 428.215 551.821L383.207 552.983C382.834 552.997 382.463 553.043 382.097 553.121Z" fill="#312433" fill-opacity="0.93"/>
<path d="M186.372 513.038V607.699C186.373 608.906 186.852 610.062 187.705 610.915C188.558 611.768 189.715 612.248 190.921 612.249H331.194C332.401 612.248 333.557 611.768 334.41 610.915C335.263 610.062 335.743 608.906 335.744 607.699V513.038C335.741 511.833 335.26 510.678 334.408 509.826C333.555 508.975 332.4 508.495 331.194 508.494H190.921C189.716 508.495 188.56 508.975 187.708 509.826C186.855 510.678 186.375 511.833 186.372 513.038Z" fill="#2F2F35" fill-opacity="0.93"/>
<path d="M189.663 514.216V606.532C189.664 607.176 189.92 607.794 190.376 608.25C190.832 608.705 191.449 608.962 192.094 608.963H330.027C330.671 608.962 331.289 608.705 331.745 608.25C332.2 607.794 332.457 607.176 332.458 606.532V514.216C332.458 513.571 332.202 512.952 331.746 512.495C331.29 512.038 330.672 511.781 330.027 511.78H192.094C191.449 511.781 190.83 512.038 190.375 512.495C189.919 512.952 189.663 513.571 189.663 514.216Z" fill="black"/>
<path d="M183.438 626.161C183.695 626.483 184.022 626.743 184.394 626.921C184.765 627.098 185.173 627.19 185.585 627.188H335.784C336.195 627.187 336.601 627.095 336.971 626.918C337.342 626.741 337.669 626.484 337.927 626.165C338.186 625.846 338.371 625.473 338.467 625.074C338.564 624.675 338.57 624.259 338.486 623.857L336.154 612.782C336.058 612.33 335.85 611.91 335.549 611.559C335.249 611.208 334.865 610.938 334.434 610.774C334.121 610.651 333.788 610.589 333.453 610.589H187.907C187.572 610.589 187.239 610.651 186.926 610.774C186.495 610.938 186.111 611.208 185.811 611.559C185.51 611.91 185.302 612.33 185.205 612.782L182.874 623.857C182.791 624.259 182.799 624.674 182.896 625.072C182.994 625.471 183.179 625.843 183.438 626.161Z" fill="black"/>
<path d="M328.299 615.359H331.847C332.145 615.359 332.386 615.118 332.386 614.82V613.123C332.386 612.825 332.145 612.583 331.847 612.583H328.299C328.001 612.583 327.76 612.825 327.76 613.123V614.82C327.76 615.118 328.001 615.359 328.299 615.359Z" fill="#3D33D5" fill-opacity="0.93"/>
<path d="M319.047 615.359H322.595C322.892 615.359 323.134 615.118 323.134 614.82V613.123C323.134 612.825 322.892 612.583 322.595 612.583H319.047C318.749 612.583 318.508 612.825 318.508 613.123V614.82C318.508 615.118 318.749 615.359 319.047 615.359Z" fill="#3D33D5" fill-opacity="0.93"/>
<path d="M309.795 615.359H313.342C313.64 615.359 313.882 615.118 313.882 614.82V613.123C313.882 612.825 313.64 612.583 313.342 612.583H309.795C309.497 612.583 309.255 612.825 309.255 613.123V614.82C309.255 615.118 309.497 615.359 309.795 615.359Z" fill="#3D33D5" fill-opacity="0.93"/>
<path d="M300.542 615.359H304.09C304.388 615.359 304.629 615.118 304.629 614.82V613.123C304.629 612.825 304.388 612.583 304.09 612.583H300.542C300.245 612.583 300.003 612.825 300.003 613.123V614.82C300.003 615.118 300.245 615.359 300.542 615.359Z" fill="#3D33D5" fill-opacity="0.93"/>
<path d="M291.291 615.359H294.838C295.136 615.359 295.377 615.118 295.377 614.82V613.123C295.377 612.825 295.136 612.583 294.838 612.583H291.291C290.993 612.583 290.751 612.825 290.751 613.123V614.82C290.751 615.118 290.993 615.359 291.291 615.359Z" fill="#3D33D5" fill-opacity="0.93"/>
<path d="M282.038 615.359H285.586C285.884 615.359 286.125 615.118 286.125 614.82V613.123C286.125 612.825 285.884 612.583 285.586 612.583H282.038C281.741 612.583 281.499 612.825 281.499 613.123V614.82C281.499 615.118 281.741 615.359 282.038 615.359Z" fill="#3D33D5" fill-opacity="0.93"/>
<path d="M272.786 615.359H276.334C276.632 615.359 276.873 615.118 276.873 614.82V613.123C276.873 612.825 276.632 612.583 276.334 612.583H272.786C272.488 612.583 272.247 612.825 272.247 613.123V614.82C272.247 615.118 272.488 615.359 272.786 615.359Z" fill="#3D33D5" fill-opacity="0.93"/>
<path d="M263.534 615.359H267.082C267.379 615.359 267.621 615.118 267.621 614.82V613.123C267.621 612.825 267.379 612.583 267.082 612.583H263.534C263.236 612.583 262.995 612.825 262.995 613.123V614.82C262.995 615.118 263.236 615.359 263.534 615.359Z" fill="#3D33D5" fill-opacity="0.93"/>
<path d="M254.282 615.359H257.829C258.127 615.359 258.369 615.118 258.369 614.82V613.123C258.369 612.825 258.127 612.583 257.829 612.583H254.282C253.984 612.583 253.743 612.825 253.743 613.123V614.82C253.743 615.118 253.984 615.359 254.282 615.359Z" fill="#3F3D56"/>
<path d="M245.03 615.359H248.577C248.875 615.359 249.116 615.118 249.116 614.82V613.123C249.116 612.825 248.875 612.583 248.577 612.583H245.03C244.732 612.583 244.49 612.825 244.49 613.123V614.82C244.49 615.118 244.732 615.359 245.03 615.359Z" fill="#3F3D56"/>
<path d="M235.777 615.359H239.325C239.623 615.359 239.864 615.118 239.864 614.82V613.123C239.864 612.825 239.623 612.583 239.325 612.583H235.777C235.48 612.583 235.238 612.825 235.238 613.123V614.82C235.238 615.118 235.48 615.359 235.777 615.359Z" fill="#3F3D56"/>
<path d="M226.525 615.359H230.073C230.371 615.359 230.612 615.118 230.612 614.82V613.123C230.612 612.825 230.371 612.583 230.073 612.583H226.525C226.228 612.583 225.986 612.825 225.986 613.123V614.82C225.986 615.118 226.228 615.359 226.525 615.359Z" fill="#3F3D56"/>
<path d="M217.273 615.359H220.821C221.119 615.359 221.36 615.118 221.36 614.82V613.123C221.36 612.825 221.119 612.583 220.821 612.583H217.273C216.975 612.583 216.734 612.825 216.734 613.123V614.82C216.734 615.118 216.975 615.359 217.273 615.359Z" fill="#3F3D56"/>
<path d="M208.021 615.359H211.569C211.867 615.359 212.108 615.118 212.108 614.82V613.123C212.108 612.825 211.867 612.583 211.569 612.583H208.021C207.723 612.583 207.482 612.825 207.482 613.123V614.82C207.482 615.118 207.723 615.359 208.021 615.359Z" fill="#3F3D56"/>
<path d="M198.769 615.359H202.317C202.614 615.359 202.856 615.118 202.856 614.82V613.123C202.856 612.825 202.614 612.583 202.317 612.583H198.769C198.471 612.583 198.23 612.825 198.23 613.123V614.82C198.23 615.118 198.471 615.359 198.769 615.359Z" fill="#3F3D56"/>
<path d="M189.517 615.359H193.064C193.362 615.359 193.604 615.118 193.604 614.82V613.123C193.604 612.825 193.362 612.583 193.064 612.583H189.517C189.219 612.583 188.977 612.825 188.977 613.123V614.82C188.977 615.118 189.219 615.359 189.517 615.359Z" fill="#3F3D56"/>
<path d="M328.408 619.985H331.956C332.254 619.985 332.495 619.744 332.495 619.446V617.749C332.495 617.451 332.254 617.21 331.956 617.21H328.408C328.11 617.21 327.869 617.451 327.869 617.749V619.446C327.869 619.744 328.11 619.985 328.408 619.985Z" fill="#3D33D5" fill-opacity="0.93"/>
<path d="M319.156 619.985H322.704C323.002 619.985 323.243 619.744 323.243 619.446V617.749C323.243 617.451 323.002 617.21 322.704 617.21H319.156C318.859 617.21 318.617 617.451 318.617 617.749V619.446C318.617 619.744 318.859 619.985 319.156 619.985Z" fill="#3D33D5" fill-opacity="0.93"/>
<path d="M309.904 619.985H313.452C313.75 619.985 313.991 619.744 313.991 619.446V617.749C313.991 617.451 313.75 617.21 313.452 617.21H309.904C309.606 617.21 309.365 617.451 309.365 617.749V619.446C309.365 619.744 309.606 619.985 309.904 619.985Z" fill="#3D33D5" fill-opacity="0.93"/>
<path d="M300.652 619.985H304.2C304.497 619.985 304.739 619.744 304.739 619.446V617.749C304.739 617.451 304.497 617.21 304.2 617.21H300.652C300.354 617.21 300.113 617.451 300.113 617.749V619.446C300.113 619.744 300.354 619.985 300.652 619.985Z" fill="#3D33D5" fill-opacity="0.93"/>
<path d="M291.4 619.985H294.947C295.245 619.985 295.487 619.744 295.487 619.446V617.749C295.487 617.451 295.245 617.21 294.947 617.21H291.4C291.102 617.21 290.861 617.451 290.861 617.749V619.446C290.861 619.744 291.102 619.985 291.4 619.985Z" fill="#3D33D5" fill-opacity="0.93"/>
<path d="M282.148 619.985H285.695C285.993 619.985 286.234 619.744 286.234 619.446V617.749C286.234 617.451 285.993 617.21 285.695 617.21H282.148C281.85 617.21 281.608 617.451 281.608 617.749V619.446C281.608 619.744 281.85 619.985 282.148 619.985Z" fill="#3D33D5" fill-opacity="0.93"/>
<path d="M272.896 619.985H276.443C276.741 619.985 276.982 619.744 276.982 619.446V617.749C276.982 617.451 276.741 617.21 276.443 617.21H272.896C272.598 617.21 272.356 617.451 272.356 617.749V619.446C272.356 619.744 272.598 619.985 272.896 619.985Z" fill="#3D33D5" fill-opacity="0.93"/>
<path d="M263.643 619.985H267.191C267.489 619.985 267.73 619.744 267.73 619.446V617.749C267.73 617.451 267.489 617.21 267.191 617.21H263.643C263.346 617.21 263.104 617.451 263.104 617.749V619.446C263.104 619.744 263.346 619.985 263.643 619.985Z" fill="#3D33D5" fill-opacity="0.93"/>
<path d="M254.391 619.985H257.939C258.237 619.985 258.478 619.744 258.478 619.446V617.749C258.478 617.451 258.237 617.21 257.939 617.21H254.391C254.093 617.21 253.852 617.451 253.852 617.749V619.446C253.852 619.744 254.093 619.985 254.391 619.985Z" fill="#3F3D56"/>
<path d="M245.139 619.985H248.687C248.984 619.985 249.226 619.744 249.226 619.446V617.749C249.226 617.451 248.984 617.21 248.687 617.21H245.139C244.841 617.21 244.6 617.451 244.6 617.749V619.446C244.6 619.744 244.841 619.985 245.139 619.985Z" fill="#3F3D56"/>
<path d="M235.887 619.985H239.434C239.732 619.985 239.974 619.744 239.974 619.446V617.749C239.974 617.451 239.732 617.21 239.434 617.21H235.887C235.589 617.21 235.348 617.451 235.348 617.749V619.446C235.348 619.744 235.589 619.985 235.887 619.985Z" fill="#3F3D56"/>
<path d="M226.635 619.985H230.182C230.48 619.985 230.722 619.744 230.722 619.446V617.749C230.722 617.451 230.48 617.21 230.182 617.21H226.635C226.337 617.21 226.096 617.451 226.096 617.749V619.446C226.096 619.744 226.337 619.985 226.635 619.985Z" fill="#3F3D56"/>
<path d="M217.383 619.985H220.93C221.228 619.985 221.469 619.744 221.469 619.446V617.749C221.469 617.451 221.228 617.21 220.93 617.21H217.383C217.085 617.21 216.843 617.451 216.843 617.749V619.446C216.843 619.744 217.085 619.985 217.383 619.985Z" fill="#3F3D56"/>
<path d="M208.13 619.985H211.678C211.976 619.985 212.217 619.744 212.217 619.446V617.749C212.217 617.451 211.976 617.21 211.678 617.21H208.13C207.833 617.21 207.591 617.451 207.591 617.749V619.446C207.591 619.744 207.833 619.985 208.13 619.985Z" fill="#3F3D56"/>
<path d="M198.878 619.985H202.426C202.724 619.985 202.965 619.744 202.965 619.446V617.749C202.965 617.451 202.724 617.21 202.426 617.21H198.878C198.58 617.21 198.339 617.451 198.339 617.749V619.446C198.339 619.744 198.58 619.985 198.878 619.985Z" fill="#3F3D56"/>
<path d="M189.626 619.985H193.174C193.471 619.985 193.713 619.744 193.713 619.446V617.749C193.713 617.451 193.471 617.21 193.174 617.21H189.626C189.328 617.21 189.087 617.451 189.087 617.749V619.446C189.087 619.744 189.328 619.985 189.626 619.985Z" fill="#3F3D56"/>
<path d="M251.616 625.537H287.546C287.844 625.537 288.085 625.295 288.085 624.998V623.3C288.085 623.002 287.844 622.761 287.546 622.761H251.616C251.318 622.761 251.076 623.002 251.076 623.3V624.998C251.076 625.295 251.318 625.537 251.616 625.537Z" fill="#3D33D5" fill-opacity="0.93"/>
<path d="M522.371 621.013L585.15 566.126C588.135 563.516 582.442 571.291 585.052 574.277C587.662 577.262 597.585 574.326 594.6 576.936L531.822 631.823L515.924 635.453L522.371 621.013Z" fill="#3D33D5" fill-opacity="0.93"/>
<path d="M522.371 621.013L523.893 619.683C525.924 620.701 527.736 622.107 529.228 623.821C530.994 625.836 532.276 628.227 532.978 630.812L531.822 631.823L519.151 634.715L515.924 635.453L517.269 632.428L522.371 621.013Z" fill="#CCCCCC"/>
<path d="M517.27 632.428C517.74 632.635 518.155 632.95 518.482 633.347C518.809 633.745 519.038 634.213 519.151 634.714L515.924 635.453L517.27 632.428Z" fill="#3D33D5" fill-opacity="0.93"/>
<path d="M931.977 445.095C926.057 453.954 916.581 460.084 906.375 463.121C902.23 464.355 897.95 465.082 893.63 465.286C893.096 460.4 891.819 455.625 889.841 451.126C890.042 455.915 889.376 460.701 887.875 465.253C881.388 464.885 875.045 463.185 869.243 460.26C857.922 454.462 849.208 443.372 847.275 430.792C845 416.102 851.66 401.677 854.067 387.009C856.486 372.341 851.947 353.763 837.589 349.909C826.654 346.971 827.88 348.241 818.791 354.989C828.246 368.971 793.322 420.205 779.029 415.737C770.949 413.212 765.776 405.797 764.108 405.797C752.876 425.148 774.026 457.753 752.71 464.524L754.466 462.768C767.333 446.94 740.439 413.44 753.306 397.612C756.896 393.183 760.717 387.937 759.657 382.337C758.652 377.013 750.203 374.197 747.729 378.571C752.18 368.376 745.608 354.769 734.729 352.151C725.065 349.82 725.242 352.692 715.544 353.94C714.911 349.749 713.726 345.66 712.021 341.78C712.199 345.961 711.711 350.144 710.574 354.172C707.149 354.105 703.841 352.909 701.164 350.77C693.256 344.397 694.858 331.011 701.915 323.71C708.984 316.409 719.487 313.78 729.505 312.079C732.417 291.8 788.368 289.684 795.784 309.948C798.943 294.816 817.885 286.963 832.607 291.657C847.33 296.351 857.547 310.102 862.925 324.593C868.304 339.073 869.806 354.658 873.12 369.746C876.433 384.833 882.033 400.197 893.563 410.48C905.094 420.752 923.881 424.154 936.03 414.611C939.863 424.552 937.886 436.226 931.977 445.095Z" fill="black"/>
<path d="M59.3182 21.8182C59.1136 20.0909 58.2841 18.75 56.8295 17.7955C55.375 16.8409 53.5909 16.3636 51.4773 16.3636C49.9318 16.3636 48.5795 16.6136 47.4205 17.1136C46.2727 17.6136 45.375 18.3011 44.7273 19.1761C44.0909 20.0511 43.7727 21.0455 43.7727 22.1591C43.7727 23.0909 43.9943 23.892 44.4375 24.5625C44.892 25.2216 45.4716 25.7727 46.1761 26.2159C46.8807 26.6477 47.6193 27.0057 48.392 27.2898C49.1648 27.5625 49.875 27.7841 50.5227 27.9545L54.0682 28.9091C54.9773 29.1477 55.9886 29.4773 57.1023 29.8977C58.2273 30.3182 59.3011 30.892 60.3239 31.6193C61.358 32.3352 62.2102 33.2557 62.8807 34.3807C63.5511 35.5057 63.8864 36.8864 63.8864 38.5227C63.8864 40.4091 63.392 42.1136 62.4034 43.6364C61.4261 45.1591 59.9943 46.3693 58.108 47.267C56.233 48.1648 53.9545 48.6136 51.2727 48.6136C48.7727 48.6136 46.608 48.2102 44.7784 47.4034C42.9602 46.5966 41.5284 45.4716 40.483 44.0284C39.4489 42.5852 38.8636 40.9091 38.7273 39H43.0909C43.2045 40.3182 43.6477 41.4091 44.4205 42.2727C45.2045 43.125 46.1932 43.7614 47.3864 44.1818C48.5909 44.5909 49.8864 44.7955 51.2727 44.7955C52.8864 44.7955 54.3352 44.5341 55.6193 44.0114C56.9034 43.4773 57.9205 42.7386 58.6705 41.7955C59.4205 40.8409 59.7955 39.7273 59.7955 38.4545C59.7955 37.2955 59.4716 36.3523 58.8239 35.625C58.1761 34.8977 57.3239 34.3068 56.267 33.8523C55.2102 33.3977 54.0682 33 52.8409 32.6591L48.5455 31.4318C45.8182 30.6477 43.6591 29.5284 42.0682 28.0739C40.4773 26.6193 39.6818 24.7159 39.6818 22.3636C39.6818 20.4091 40.2102 18.7045 41.267 17.25C42.3352 15.7841 43.767 14.6477 45.5625 13.8409C47.3693 13.0227 49.3864 12.6136 51.6136 12.6136C53.8636 12.6136 55.8636 13.017 57.6136 13.8239C59.3636 14.6193 60.75 15.7102 61.7727 17.0966C62.8068 18.483 63.3523 20.0568 63.4091 21.8182H59.3182ZM80.9276 48.5455C78.5639 48.5455 76.4901 47.983 74.706 46.858C72.9332 45.733 71.5469 44.1591 70.5469 42.1364C69.5582 40.1136 69.0639 37.75 69.0639 35.0455C69.0639 32.3182 69.5582 29.9375 70.5469 27.9034C71.5469 25.8693 72.9332 24.2898 74.706 23.1648C76.4901 22.0398 78.5639 21.4773 80.9276 21.4773C83.2912 21.4773 85.3594 22.0398 87.1321 23.1648C88.9162 24.2898 90.3026 25.8693 91.2912 27.9034C92.2912 29.9375 92.7912 32.3182 92.7912 35.0455C92.7912 37.75 92.2912 40.1136 91.2912 42.1364C90.3026 44.1591 88.9162 45.733 87.1321 46.858C85.3594 47.983 83.2912 48.5455 80.9276 48.5455ZM80.9276 44.9318C82.723 44.9318 84.2003 44.4716 85.3594 43.5511C86.5185 42.6307 87.3764 41.4205 87.9332 39.9205C88.4901 38.4205 88.7685 36.7955 88.7685 35.0455C88.7685 33.2955 88.4901 31.6648 87.9332 30.1534C87.3764 28.642 86.5185 27.4205 85.3594 26.4886C84.2003 25.5568 82.723 25.0909 80.9276 25.0909C79.1321 25.0909 77.6548 25.5568 76.4957 26.4886C75.3366 27.4205 74.4787 28.642 73.9219 30.1534C73.3651 31.6648 73.0866 33.2955 73.0866 35.0455C73.0866 36.7955 73.3651 38.4205 73.9219 39.9205C74.4787 41.4205 75.3366 42.6307 76.4957 43.5511C77.6548 44.4716 79.1321 44.9318 80.9276 44.9318ZM98.9318 48V21.8182H102.818V25.9091H103.159C103.705 24.5114 104.585 23.4261 105.801 22.6534C107.017 21.8693 108.477 21.4773 110.182 21.4773C111.909 21.4773 113.347 21.8693 114.494 22.6534C115.653 23.4261 116.557 24.5114 117.205 25.9091H117.477C118.148 24.5568 119.153 23.483 120.494 22.6875C121.835 21.8807 123.443 21.4773 125.318 21.4773C127.659 21.4773 129.574 22.2102 131.062 23.6761C132.551 25.1307 133.295 27.3977 133.295 30.4773V48H129.273V30.4773C129.273 28.5455 128.744 27.1648 127.688 26.3352C126.631 25.5057 125.386 25.0909 123.955 25.0909C122.114 25.0909 120.688 25.6477 119.676 26.7614C118.665 27.8636 118.159 29.2614 118.159 30.9545V48H114.068V30.0682C114.068 28.5795 113.585 27.3807 112.619 26.4716C111.653 25.5511 110.409 25.0909 108.886 25.0909C107.841 25.0909 106.864 25.3693 105.955 25.9261C105.057 26.483 104.33 27.2557 103.773 28.2443C103.227 29.2216 102.955 30.3523 102.955 31.6364V48H98.9318ZM151.628 48.5455C149.105 48.5455 146.929 47.9886 145.099 46.875C143.281 45.75 141.878 44.1818 140.889 42.1705C139.912 40.1477 139.423 37.7955 139.423 35.1136C139.423 32.4318 139.912 30.0682 140.889 28.0227C141.878 25.9659 143.253 24.3636 145.014 23.2159C146.787 22.0568 148.855 21.4773 151.219 21.4773C152.582 21.4773 153.929 21.7045 155.259 22.1591C156.588 22.6136 157.798 23.3523 158.889 24.375C159.98 25.3864 160.849 26.7273 161.497 28.3977C162.145 30.0682 162.469 32.125 162.469 34.5682V36.2727H142.287V32.7955H158.378C158.378 31.3182 158.082 30 157.491 28.8409C156.912 27.6818 156.082 26.767 155.003 26.0966C153.935 25.4261 152.673 25.0909 151.219 25.0909C149.616 25.0909 148.23 25.4886 147.06 26.2841C145.901 27.0682 145.009 28.0909 144.384 29.3523C143.759 30.6136 143.446 31.9659 143.446 33.4091V35.7273C143.446 37.7045 143.787 39.3807 144.469 40.7557C145.162 42.1193 146.122 43.1591 147.349 43.875C148.577 44.5795 150.003 44.9318 151.628 44.9318C152.685 44.9318 153.639 44.7841 154.491 44.4886C155.355 44.1818 156.099 43.7273 156.724 43.125C157.349 42.5114 157.832 41.75 158.173 40.8409L162.06 41.9318C161.651 43.25 160.963 44.4091 159.997 45.4091C159.031 46.3977 157.838 47.1705 156.418 47.7273C154.997 48.2727 153.401 48.5455 151.628 48.5455ZM179.974 21.8182V25.2273H166.406V21.8182H179.974ZM170.361 15.5455H174.384V40.5C174.384 41.6364 174.548 42.4886 174.878 43.0568C175.219 43.6136 175.651 43.9886 176.173 44.1818C176.707 44.3636 177.27 44.4545 177.861 44.4545C178.304 44.4545 178.668 44.4318 178.952 44.3864C179.236 44.3295 179.463 44.2841 179.634 44.25L180.452 47.8636C180.179 47.9659 179.798 48.0682 179.31 48.1705C178.821 48.2841 178.202 48.3409 177.452 48.3409C176.315 48.3409 175.202 48.0966 174.111 47.608C173.031 47.1193 172.134 46.375 171.418 45.375C170.713 44.375 170.361 43.1136 170.361 41.5909V15.5455ZM186.026 48V21.8182H190.048V48H186.026ZM188.071 17.4545C187.287 17.4545 186.611 17.1875 186.043 16.6534C185.486 16.1193 185.207 15.4773 185.207 14.7273C185.207 13.9773 185.486 13.3352 186.043 12.8011C186.611 12.267 187.287 12 188.071 12C188.855 12 189.526 12.267 190.082 12.8011C190.651 13.3352 190.935 13.9773 190.935 14.7273C190.935 15.4773 190.651 16.1193 190.082 16.6534C189.526 17.1875 188.855 17.4545 188.071 17.4545ZM39.6818 106V79.8182H43.5682V83.9091H43.9091C44.4545 82.5114 45.3352 81.4261 46.5511 80.6534C47.767 79.8693 49.2273 79.4773 50.9318 79.4773C52.6591 79.4773 54.0966 79.8693 55.2443 80.6534C56.4034 81.4261 57.3068 82.5114 57.9545 83.9091H58.2273C58.8977 82.5568 59.9034 81.483 61.2443 80.6875C62.5852 79.8807 64.1932 79.4773 66.0682 79.4773C68.4091 79.4773 70.3239 80.2102 71.8125 81.6761C73.3011 83.1307 74.0455 85.3977 74.0455 88.4773V106H70.0227V88.4773C70.0227 86.5455 69.4943 85.1648 68.4375 84.3352C67.3807 83.5057 66.1364 83.0909 64.7045 83.0909C62.8636 83.0909 61.4375 83.6477 60.4261 84.7614C59.4148 85.8636 58.9091 87.2614 58.9091 88.9545V106H54.8182V88.0682C54.8182 86.5795 54.3352 85.3807 53.3693 84.4716C52.4034 83.5511 51.1591 83.0909 49.6364 83.0909C48.5909 83.0909 47.6136 83.3693 46.7045 83.9261C45.8068 84.483 45.0795 85.2557 44.5227 86.2443C43.9773 87.2216 43.7045 88.3523 43.7045 89.6364V106H39.6818ZM92.3778 106.545C89.8551 106.545 87.679 105.989 85.8494 104.875C84.0312 103.75 82.6278 102.182 81.6392 100.17C80.6619 98.1477 80.1733 95.7955 80.1733 93.1136C80.1733 90.4318 80.6619 88.0682 81.6392 86.0227C82.6278 83.9659 84.0028 82.3636 85.7642 81.2159C87.5369 80.0568 89.6051 79.4773 91.9688 79.4773C93.3324 79.4773 94.679 79.7045 96.0085 80.1591C97.3381 80.6136 98.5483 81.3523 99.6392 82.375C100.73 83.3864 101.599 84.7273 102.247 86.3977C102.895 88.0682 103.219 90.125 103.219 92.5682V94.2727H83.0369V90.7955H99.1278C99.1278 89.3182 98.8324 88 98.2415 86.8409C97.6619 85.6818 96.8324 84.767 95.7528 84.0966C94.6847 83.4261 93.4233 83.0909 91.9688 83.0909C90.3665 83.0909 88.9801 83.4886 87.8097 84.2841C86.6506 85.0682 85.7585 86.0909 85.1335 87.3523C84.5085 88.6136 84.196 89.9659 84.196 91.4091V93.7273C84.196 95.7045 84.5369 97.3807 85.2188 98.7557C85.9119 100.119 86.8722 101.159 88.0994 101.875C89.3267 102.58 90.7528 102.932 92.3778 102.932C93.4347 102.932 94.3892 102.784 95.2415 102.489C96.1051 102.182 96.8494 101.727 97.4744 101.125C98.0994 100.511 98.5824 99.75 98.9233 98.8409L102.81 99.9318C102.401 101.25 101.713 102.409 100.747 103.409C99.7813 104.398 98.5881 105.17 97.1676 105.727C95.7472 106.273 94.1506 106.545 92.3778 106.545ZM127.884 85.6818L124.27 86.7045C124.043 86.1023 123.707 85.517 123.264 84.9489C122.832 84.3693 122.241 83.892 121.491 83.517C120.741 83.142 119.781 82.9545 118.611 82.9545C117.009 82.9545 115.673 83.3239 114.605 84.0625C113.548 84.7898 113.02 85.7159 113.02 86.8409C113.02 87.8409 113.384 88.6307 114.111 89.2102C114.838 89.7898 115.974 90.2727 117.52 90.6591L121.406 91.6136C123.747 92.1818 125.491 93.0511 126.639 94.2216C127.787 95.3807 128.361 96.875 128.361 98.7045C128.361 100.205 127.929 101.545 127.065 102.727C126.213 103.909 125.02 104.841 123.486 105.523C121.952 106.205 120.168 106.545 118.134 106.545C115.463 106.545 113.253 105.966 111.503 104.807C109.753 103.648 108.645 101.955 108.179 99.7273L111.997 98.7727C112.361 100.182 113.048 101.239 114.06 101.943C115.082 102.648 116.418 103 118.065 103C119.94 103 121.429 102.602 122.531 101.807C123.645 101 124.202 100.034 124.202 98.9091C124.202 98 123.884 97.2386 123.247 96.625C122.611 96 121.634 95.5341 120.315 95.2273L115.952 94.2045C113.554 93.6364 111.793 92.7557 110.668 91.5625C109.554 90.358 108.997 88.8523 108.997 87.0455C108.997 85.5682 109.412 84.2614 110.241 83.125C111.082 81.9886 112.224 81.0966 113.668 80.4489C115.122 79.8011 116.77 79.4773 118.611 79.4773C121.202 79.4773 123.236 80.0455 124.713 81.1818C126.202 82.3182 127.259 83.8182 127.884 85.6818ZM42.2727 173.818C41.5909 173.818 40.983 173.761 40.4489 173.648C39.9148 173.545 39.5455 173.443 39.3409 173.341L40.3636 169.795C41.3409 170.045 42.2045 170.136 42.9545 170.068C43.7045 170 44.3693 169.665 44.9489 169.062C45.5398 168.472 46.0795 167.511 46.5682 166.182L47.3182 164.136L37.6364 137.818H42L49.2273 158.682H49.5L56.7273 137.818H61.0909L49.9773 167.818C49.4773 169.17 48.858 170.29 48.1193 171.176C47.3807 172.074 46.5227 172.739 45.5455 173.17C44.5795 173.602 43.4886 173.818 42.2727 173.818ZM76.0994 164.545C73.7358 164.545 71.6619 163.983 69.8778 162.858C68.1051 161.733 66.7188 160.159 65.7188 158.136C64.7301 156.114 64.2358 153.75 64.2358 151.045C64.2358 148.318 64.7301 145.937 65.7188 143.903C66.7188 141.869 68.1051 140.29 69.8778 139.165C71.6619 138.04 73.7358 137.477 76.0994 137.477C78.4631 137.477 80.5313 138.04 82.304 139.165C84.0881 140.29 85.4744 141.869 86.4631 143.903C87.4631 145.937 87.9631 148.318 87.9631 151.045C87.9631 153.75 87.4631 156.114 86.4631 158.136C85.4744 160.159 84.0881 161.733 82.304 162.858C80.5313 163.983 78.4631 164.545 76.0994 164.545ZM76.0994 160.932C77.8949 160.932 79.3722 160.472 80.5312 159.551C81.6903 158.631 82.5483 157.42 83.1051 155.92C83.6619 154.42 83.9403 152.795 83.9403 151.045C83.9403 149.295 83.6619 147.665 83.1051 146.153C82.5483 144.642 81.6903 143.42 80.5312 142.489C79.3722 141.557 77.8949 141.091 76.0994 141.091C74.304 141.091 72.8267 141.557 71.6676 142.489C70.5085 143.42 69.6506 144.642 69.0938 146.153C68.5369 147.665 68.2585 149.295 68.2585 151.045C68.2585 152.795 68.5369 154.42 69.0938 155.92C69.6506 157.42 70.5085 158.631 71.6676 159.551C72.8267 160.472 74.304 160.932 76.0994 160.932ZM110.604 153.295V137.818H114.626V164H110.604V159.568H110.331C109.717 160.898 108.763 162.028 107.467 162.96C106.172 163.881 104.536 164.341 102.558 164.341C100.922 164.341 99.4673 163.983 98.1946 163.267C96.9219 162.54 95.9219 161.449 95.1946 159.994C94.4673 158.528 94.1037 156.682 94.1037 154.455V137.818H98.1264V154.182C98.1264 156.091 98.6605 157.614 99.7287 158.75C100.808 159.886 102.183 160.455 103.854 160.455C104.854 160.455 105.871 160.199 106.905 159.688C107.95 159.176 108.825 158.392 109.53 157.335C110.246 156.278 110.604 154.932 110.604 153.295ZM39.6818 195.818H43.7045V223.909C43.7045 225.523 43.4261 226.92 42.8693 228.102C42.3239 229.284 41.4943 230.199 40.3807 230.847C39.2784 231.494 37.8864 231.818 36.2045 231.818C36.0682 231.818 35.9318 231.818 35.7955 231.818C35.6591 231.818 35.5227 231.818 35.3864 231.818V228.068C35.5227 228.068 35.6477 228.068 35.7614 228.068C35.875 228.068 36 228.068 36.1364 228.068C37.3636 228.068 38.2614 227.705 38.8295 226.977C39.3977 226.261 39.6818 225.239 39.6818 223.909V195.818ZM41.6591 191.455C40.875 191.455 40.1989 191.188 39.6307 190.653C39.0739 190.119 38.7955 189.477 38.7955 188.727C38.7955 187.977 39.0739 187.335 39.6307 186.801C40.1989 186.267 40.875 186 41.6591 186C42.4432 186 43.1136 186.267 43.6705 186.801C44.2386 187.335 44.5227 187.977 44.5227 188.727C44.5227 189.477 44.2386 190.119 43.6705 190.653C43.1136 191.188 42.4432 191.455 41.6591 191.455ZM67.5724 211.295V195.818H71.5952V222H67.5724V217.568H67.2997C66.6861 218.898 65.7315 220.028 64.4361 220.96C63.1406 221.881 61.5043 222.341 59.527 222.341C57.8906 222.341 56.4361 221.983 55.1634 221.267C53.8906 220.54 52.8906 219.449 52.1634 217.994C51.4361 216.528 51.0724 214.682 51.0724 212.455V195.818H55.0952V212.182C55.0952 214.091 55.6293 215.614 56.6974 216.75C57.777 217.886 59.152 218.455 60.8224 218.455C61.8224 218.455 62.8395 218.199 63.8736 217.688C64.919 217.176 65.794 216.392 66.4986 215.335C67.2145 214.278 67.5724 212.932 67.5724 211.295ZM97.5085 201.682L93.8949 202.705C93.6676 202.102 93.3324 201.517 92.8892 200.949C92.4574 200.369 91.8665 199.892 91.1165 199.517C90.3665 199.142 89.4062 198.955 88.2358 198.955C86.6335 198.955 85.2983 199.324 84.2301 200.062C83.1733 200.79 82.6449 201.716 82.6449 202.841C82.6449 203.841 83.0085 204.631 83.7358 205.21C84.4631 205.79 85.5994 206.273 87.1449 206.659L91.0312 207.614C93.3722 208.182 95.1165 209.051 96.2642 210.222C97.4119 211.381 97.9858 212.875 97.9858 214.705C97.9858 216.205 97.554 217.545 96.6903 218.727C95.8381 219.909 94.6449 220.841 93.1108 221.523C91.5767 222.205 89.7926 222.545 87.7585 222.545C85.0881 222.545 82.8778 221.966 81.1278 220.807C79.3778 219.648 78.2699 217.955 77.804 215.727L81.6222 214.773C81.9858 216.182 82.6733 217.239 83.6847 217.943C84.7074 218.648 86.0426 219 87.6903 219C89.5653 219 91.054 218.602 92.1562 217.807C93.2699 217 93.8267 216.034 93.8267 214.909C93.8267 214 93.5085 213.239 92.8722 212.625C92.2358 212 91.2585 211.534 89.9403 211.227L85.5767 210.205C83.179 209.636 81.4176 208.756 80.2926 207.562C79.179 206.358 78.6222 204.852 78.6222 203.045C78.6222 201.568 79.0369 200.261 79.8665 199.125C80.7074 197.989 81.8494 197.097 83.2926 196.449C84.7472 195.801 86.3949 195.477 88.2358 195.477C90.8267 195.477 92.8608 196.045 94.3381 197.182C95.8267 198.318 96.8835 199.818 97.5085 201.682ZM115.428 195.818V199.227H101.859V195.818H115.428ZM105.814 189.545H109.837V214.5C109.837 215.636 110.001 216.489 110.331 217.057C110.672 217.614 111.104 217.989 111.626 218.182C112.161 218.364 112.723 218.455 113.314 218.455C113.757 218.455 114.121 218.432 114.405 218.386C114.689 218.33 114.916 218.284 115.087 218.25L115.905 221.864C115.632 221.966 115.251 222.068 114.763 222.17C114.274 222.284 113.655 222.341 112.905 222.341C111.768 222.341 110.655 222.097 109.564 221.608C108.484 221.119 107.587 220.375 106.871 219.375C106.166 218.375 105.814 217.114 105.814 215.591V189.545ZM43.7045 264.25V280H39.6818V245.091H43.7045V257.909H44.0455C44.6591 256.557 45.5795 255.483 46.8068 254.688C48.0455 253.881 49.6932 253.477 51.75 253.477C53.5341 253.477 55.0966 253.835 56.4375 254.551C57.7784 255.256 58.8182 256.341 59.5568 257.807C60.3068 259.261 60.6818 261.114 60.6818 263.364V280H56.6591V263.636C56.6591 261.557 56.1193 259.949 55.0398 258.812C53.9716 257.665 52.4886 257.091 50.5909 257.091C49.2727 257.091 48.0909 257.369 47.0455 257.926C46.0114 258.483 45.1932 259.295 44.5909 260.364C44 261.432 43.7045 262.727 43.7045 264.25ZM75.7457 280.614C74.0866 280.614 72.581 280.301 71.2287 279.676C69.8764 279.04 68.8026 278.125 68.0071 276.932C67.2116 275.727 66.8139 274.273 66.8139 272.568C66.8139 271.068 67.1094 269.852 67.7003 268.92C68.2912 267.977 69.081 267.239 70.0696 266.705C71.0582 266.17 72.1491 265.773 73.3423 265.511C74.5469 265.239 75.7571 265.023 76.973 264.864C78.5639 264.659 79.8537 264.506 80.8423 264.403C81.8423 264.29 82.5696 264.102 83.0241 263.841C83.4901 263.58 83.723 263.125 83.723 262.477V262.341C83.723 260.659 83.2628 259.352 82.3423 258.42C81.4332 257.489 80.0526 257.023 78.2003 257.023C76.2798 257.023 74.7741 257.443 73.6832 258.284C72.5923 259.125 71.8253 260.023 71.3821 260.977L67.5639 259.614C68.2457 258.023 69.1548 256.784 70.2912 255.898C71.4389 255 72.6889 254.375 74.0412 254.023C75.4048 253.659 76.7457 253.477 78.0639 253.477C78.9048 253.477 79.8707 253.58 80.9616 253.784C82.0639 253.977 83.1264 254.381 84.1491 254.994C85.1832 255.608 86.0412 256.534 86.723 257.773C87.4048 259.011 87.7457 260.67 87.7457 262.75V280H83.723V276.455H83.5185C83.2457 277.023 82.7912 277.631 82.1548 278.278C81.5185 278.926 80.6719 279.477 79.6151 279.932C78.5582 280.386 77.2685 280.614 75.7457 280.614ZM76.3594 277C77.9503 277 79.2912 276.688 80.3821 276.062C81.4844 275.438 82.3139 274.631 82.8707 273.642C83.4389 272.653 83.723 271.614 83.723 270.523V266.841C83.5526 267.045 83.1776 267.233 82.598 267.403C82.0298 267.562 81.3707 267.705 80.6207 267.83C79.8821 267.943 79.1605 268.045 78.456 268.136C77.7628 268.216 77.2003 268.284 76.7685 268.341C75.723 268.477 74.7457 268.699 73.8366 269.006C72.9389 269.301 72.2116 269.75 71.6548 270.352C71.1094 270.943 70.8366 271.75 70.8366 272.773C70.8366 274.17 71.3537 275.227 72.3878 275.943C73.4332 276.648 74.7571 277 76.3594 277ZM115.56 253.818L105.878 280H101.787L92.1051 253.818H96.4688L103.696 274.682H103.969L111.196 253.818H115.56ZM130.909 280.545C128.386 280.545 126.21 279.989 124.381 278.875C122.562 277.75 121.159 276.182 120.17 274.17C119.193 272.148 118.705 269.795 118.705 267.114C118.705 264.432 119.193 262.068 120.17 260.023C121.159 257.966 122.534 256.364 124.295 255.216C126.068 254.057 128.136 253.477 130.5 253.477C131.864 253.477 133.21 253.705 134.54 254.159C135.869 254.614 137.08 255.352 138.17 256.375C139.261 257.386 140.131 258.727 140.778 260.398C141.426 262.068 141.75 264.125 141.75 266.568V268.273H121.568V264.795H137.659C137.659 263.318 137.364 262 136.773 260.841C136.193 259.682 135.364 258.767 134.284 258.097C133.216 257.426 131.955 257.091 130.5 257.091C128.898 257.091 127.511 257.489 126.341 258.284C125.182 259.068 124.29 260.091 123.665 261.352C123.04 262.614 122.727 263.966 122.727 265.409V267.727C122.727 269.705 123.068 271.381 123.75 272.756C124.443 274.119 125.403 275.159 126.631 275.875C127.858 276.58 129.284 276.932 130.909 276.932C131.966 276.932 132.92 276.784 133.773 276.489C134.636 276.182 135.381 275.727 136.006 275.125C136.631 274.511 137.114 273.75 137.455 272.841L141.341 273.932C140.932 275.25 140.244 276.409 139.278 277.409C138.313 278.398 137.119 279.17 135.699 279.727C134.278 280.273 132.682 280.545 130.909 280.545ZM51.0682 311.818V315.227H37.5V311.818H51.0682ZM41.4545 305.545H45.4773V330.5C45.4773 331.636 45.642 332.489 45.9716 333.057C46.3125 333.614 46.7443 333.989 47.267 334.182C47.8011 334.364 48.3636 334.455 48.9545 334.455C49.3977 334.455 49.7614 334.432 50.0455 334.386C50.3295 334.33 50.5568 334.284 50.7273 334.25L51.5455 337.864C51.2727 337.966 50.892 338.068 50.4034 338.17C49.9148 338.284 49.2955 338.341 48.5455 338.341C47.4091 338.341 46.2955 338.097 45.2045 337.608C44.125 337.119 43.2273 336.375 42.5114 335.375C41.8068 334.375 41.4545 333.114 41.4545 331.591V305.545ZM67.4744 338.545C65.1108 338.545 63.0369 337.983 61.2528 336.858C59.4801 335.733 58.0938 334.159 57.0938 332.136C56.1051 330.114 55.6108 327.75 55.6108 325.045C55.6108 322.318 56.1051 319.937 57.0938 317.903C58.0938 315.869 59.4801 314.29 61.2528 313.165C63.0369 312.04 65.1108 311.477 67.4744 311.477C69.8381 311.477 71.9063 312.04 73.679 313.165C75.4631 314.29 76.8494 315.869 77.8381 317.903C78.8381 319.937 79.3381 322.318 79.3381 325.045C79.3381 327.75 78.8381 330.114 77.8381 332.136C76.8494 334.159 75.4631 335.733 73.679 336.858C71.9063 337.983 69.8381 338.545 67.4744 338.545ZM67.4744 334.932C69.2699 334.932 70.7472 334.472 71.9062 333.551C73.0653 332.631 73.9233 331.42 74.4801 329.92C75.0369 328.42 75.3153 326.795 75.3153 325.045C75.3153 323.295 75.0369 321.665 74.4801 320.153C73.9233 318.642 73.0653 317.42 71.9062 316.489C70.7472 315.557 69.2699 315.091 67.4744 315.091C65.679 315.091 64.2017 315.557 63.0426 316.489C61.8835 317.42 61.0256 318.642 60.4688 320.153C59.9119 321.665 59.6335 323.295 59.6335 325.045C59.6335 326.795 59.9119 328.42 60.4688 329.92C61.0256 331.42 61.8835 332.631 63.0426 333.551C64.2017 334.472 65.679 334.932 67.4744 334.932ZM108.865 338.545C106.683 338.545 104.757 337.994 103.087 336.892C101.416 335.778 100.109 334.21 99.1662 332.188C98.223 330.153 97.7514 327.75 97.7514 324.977C97.7514 322.227 98.223 319.841 99.1662 317.818C100.109 315.795 101.422 314.233 103.104 313.131C104.786 312.028 106.729 311.477 108.933 311.477C110.638 311.477 111.984 311.761 112.973 312.33C113.973 312.886 114.734 313.523 115.257 314.239C115.791 314.943 116.206 315.523 116.501 315.977H116.842V303.091H120.865V338H116.979V333.977H116.501C116.206 334.455 115.786 335.057 115.24 335.784C114.695 336.5 113.916 337.142 112.905 337.71C111.893 338.267 110.547 338.545 108.865 338.545ZM109.411 334.932C111.024 334.932 112.388 334.511 113.501 333.67C114.615 332.818 115.462 331.642 116.041 330.142C116.621 328.631 116.911 326.886 116.911 324.909C116.911 322.955 116.626 321.244 116.058 319.778C115.49 318.301 114.649 317.153 113.536 316.335C112.422 315.506 111.047 315.091 109.411 315.091C107.706 315.091 106.286 315.528 105.149 316.403C104.024 317.267 103.178 318.443 102.609 319.932C102.053 321.409 101.774 323.068 101.774 324.909C101.774 326.773 102.058 328.466 102.626 329.989C103.206 331.5 104.058 332.705 105.183 333.602C106.32 334.489 107.729 334.932 109.411 334.932ZM139.428 338.545C137.064 338.545 134.99 337.983 133.206 336.858C131.433 335.733 130.047 334.159 129.047 332.136C128.058 330.114 127.564 327.75 127.564 325.045C127.564 322.318 128.058 319.937 129.047 317.903C130.047 315.869 131.433 314.29 133.206 313.165C134.99 312.04 137.064 311.477 139.428 311.477C141.791 311.477 143.859 312.04 145.632 313.165C147.416 314.29 148.803 315.869 149.791 317.903C150.791 319.937 151.291 322.318 151.291 325.045C151.291 327.75 150.791 330.114 149.791 332.136C148.803 334.159 147.416 335.733 145.632 336.858C143.859 337.983 141.791 338.545 139.428 338.545ZM139.428 334.932C141.223 334.932 142.7 334.472 143.859 333.551C145.018 332.631 145.876 331.42 146.433 329.92C146.99 328.42 147.268 326.795 147.268 325.045C147.268 323.295 146.99 321.665 146.433 320.153C145.876 318.642 145.018 317.42 143.859 316.489C142.7 315.557 141.223 315.091 139.428 315.091C137.632 315.091 136.155 315.557 134.996 316.489C133.837 317.42 132.979 318.642 132.422 320.153C131.865 321.665 131.587 323.295 131.587 325.045C131.587 326.795 131.865 328.42 132.422 329.92C132.979 331.42 133.837 332.631 134.996 333.551C136.155 334.472 137.632 334.932 139.428 334.932ZM170.932 338V311.818H174.955V338H170.932ZM172.977 307.455C172.193 307.455 171.517 307.188 170.949 306.653C170.392 306.119 170.114 305.477 170.114 304.727C170.114 303.977 170.392 303.335 170.949 302.801C171.517 302.267 172.193 302 172.977 302C173.761 302 174.432 302.267 174.989 302.801C175.557 303.335 175.841 303.977 175.841 304.727C175.841 305.477 175.557 306.119 174.989 306.653C174.432 307.188 173.761 307.455 172.977 307.455ZM193.709 311.818V315.227H180.141V311.818H193.709ZM184.095 305.545H188.118V330.5C188.118 331.636 188.283 332.489 188.612 333.057C188.953 333.614 189.385 333.989 189.908 334.182C190.442 334.364 191.004 334.455 191.595 334.455C192.038 334.455 192.402 334.432 192.686 334.386C192.97 334.33 193.197 334.284 193.368 334.25L194.186 337.864C193.913 337.966 193.533 338.068 193.044 338.17C192.555 338.284 191.936 338.341 191.186 338.341C190.05 338.341 188.936 338.097 187.845 337.608C186.766 337.119 185.868 336.375 185.152 335.375C184.447 334.375 184.095 333.114 184.095 331.591V305.545Z" fill="white"/>
</g>
<defs>
<clipPath id="clip0_12_2">
<rect width="938" height="930" fill="white"/>
</clipPath>
</defs>
</svg>
