<svg width="890" height="959" viewBox="0 0 890 959" fill="none" xmlns="http://www.w3.org/2000/svg">
<circle cx="505" cy="385" r="385" fill="#3D33D5"/>
<g clip-path="url(#clip0_9_2)">
<path d="M800.552 712.159L794.999 933.183L793.236 958.339H718.821L716.141 909.858L694.386 725.097L800.552 712.159Z" fill="#ED9DA0"/>
<path d="M641.865 365.698C643.675 360.116 651.707 358.479 656.516 361.841C661.326 365.203 662.967 371.801 662.033 377.594C661.099 383.387 658.059 388.593 655.076 393.647C632.786 431.405 603.495 538.163 581.205 575.921C594.388 584.699 612.206 586.011 626.533 579.26C634.131 592.38 649.592 600.508 664.708 599.329C679.824 598.151 693.838 587.724 699.311 573.584C695.656 582.01 692.001 590.436 688.346 598.861C706.741 592.855 721.893 577.699 727.894 559.303C723.891 571.613 719.889 583.924 715.886 596.234C741.033 580.621 760.002 480.864 751.399 449.957C751.086 448.833 751.533 447.643 752.519 447.017L752.553 446.995C752.846 446.809 753.105 446.568 753.306 446.285C766.943 427.155 761.672 399.996 750.163 379.438C738.568 358.727 721.502 341.302 711.296 319.872C697.747 291.42 696.463 256.461 675.03 233.359C661.43 218.7 641.453 211.258 621.579 209.051C601.705 206.844 581.645 209.376 561.81 211.905L563.183 208.715C546.114 196.264 521.284 200.017 503.817 211.905C486.35 223.792 474.571 242.161 463.277 260.017C452.932 276.375 442.586 292.733 432.24 309.091C422.107 325.112 382.778 395.613 379.128 414.215C375.478 432.818 379.956 454.269 395.002 465.802C396.907 455.899 398.813 445.997 400.718 436.094L398.918 437.65C411.694 484.12 411.624 552.873 369.878 576.956C388.171 582.302 409.1 577.438 423.16 564.573L396.437 594.461C410.869 594.21 425.188 589.414 436.86 580.923L416.409 605.174L471.031 577.138L459.669 605.935C482.435 601.661 505.2 597.387 527.966 593.113" fill="#090814"/>
<path d="M475.125 899.862L462.534 958.173H718.351L709.141 927.241L475.125 899.862Z" fill="#090814"/>
<path d="M390.159 855.991L355.04 899.254C355.04 899.254 352.396 958.173 390.159 958.173C427.921 958.173 483.76 847.764 483.76 847.764L444.485 748.422L381.176 732.872L390.159 855.991Z" fill="#ED9DA0"/>
<path d="M693.97 393.128C697.12 325.503 644.853 268.129 577.228 264.978C509.603 261.828 452.228 314.095 449.077 381.72C446.523 436.565 480.42 484.661 529.396 502.564L545.779 660.103L671.135 565.165C671.135 565.165 646.613 530.746 634.377 492.654C668.441 472.265 691.984 435.757 693.97 393.128Z" fill="#ED9DA0"/>
<path d="M649.959 526.287C649.959 526.287 605.532 692.888 533.338 546.279L437.917 590.54C437.917 590.54 444.582 841.552 464.574 877.094C464.574 877.094 443.471 910.414 469.016 917.078C494.562 923.742 481.234 912.635 494.562 923.742C507.89 934.849 534.546 915.967 534.546 915.967C534.546 915.967 669.376 967.393 709.141 927.241V760.906C709.141 760.906 776.673 699.386 821.1 743.813C821.1 743.813 812.214 602.757 762.234 571.659C712.254 540.56 649.959 526.287 649.959 526.287Z" fill="#3D33D5"/>
<path d="M458.465 602.202L437.917 590.54C437.917 590.54 358.504 731.04 367.39 751.032C376.275 771.024 480.678 769.914 480.678 769.914L458.465 602.202Z" fill="#3D33D5"/>
<path d="M560.699 211.905C580.534 209.376 600.595 206.844 620.468 209.051C640.342 211.258 660.319 218.7 673.919 233.359C695.353 256.461 696.636 291.42 710.186 319.872C720.392 341.302 737.457 358.727 749.052 379.438C760.561 399.996 765.832 427.155 752.196 446.285C751.994 446.568 751.735 446.809 751.442 446.995C750.447 447.628 749.977 448.849 750.33 449.975C759.147 478.13 746.891 511.64 721.776 527.234C725.778 514.924 729.781 502.613 733.783 490.303C727.782 508.699 708.63 588.855 690.236 594.861C693.891 586.436 697.545 578.01 701.2 569.584C695.727 583.724 681.713 594.151 666.597 595.329C651.482 596.508 636.02 588.38 628.422 575.26C614.095 582.011 596.277 580.699 583.094 571.921C605.385 534.163 631.675 431.405 653.965 393.647C656.949 388.593 659.989 383.387 660.922 377.594C661.856 371.801 660.215 365.203 655.405 361.841C650.596 358.479 642.564 360.116 640.755 365.698" fill="#090814"/>
<path d="M539.169 575.467L482.903 738.814C454.714 746.067 430.035 733.461 418.595 725.975C414.252 723.143 411.819 721.044 411.819 721.044L426.258 548.889L441.186 550.4L519.222 558.33L539.169 575.467Z" fill="#D6D6E3"/>
<path d="M530.24 440.043L526.619 451.405L522.365 464.734L515.39 486.613L509.781 504.207L503.65 523.433L495.531 548.889L480.681 545.302L486.534 528.986L492.965 511.06L499.596 492.567L506.327 473.83L513.335 454.293L518.444 440.043H530.24Z" fill="#D6D6E3"/>
<path d="M441.186 550.4L418.595 725.975C414.252 723.143 411.819 721.044 411.819 721.044L426.258 548.889L441.186 550.4Z" fill="#090814"/>
<path d="M490.755 555.442L450.693 723.265L431.812 719.933L460.445 552.354" fill="#090814"/>
<path d="M533.338 570.458L480.681 733.239L467.353 727.707L514.179 557.819" fill="#090814"/>
<path d="M530.24 440.043L526.619 451.405L513.335 454.293L518.444 440.043H530.24Z" fill="#3D33D5"/>
<path d="M522.365 464.734L515.39 486.613L499.596 492.567L506.327 473.83L522.365 464.734Z" fill="#3D33D5"/>
<path d="M509.781 504.207L503.65 523.433L486.534 528.986L492.965 511.06L509.781 504.207Z" fill="#3D33D5"/>
<path d="M438.463 683.903L427.941 894.216L355.04 899.254L380.591 681.13C370.507 670.37 364.474 654.323 365.32 636.666C366.8 605.769 388.728 581.715 414.298 582.94C439.867 584.165 459.396 610.205 457.915 641.102C457.069 658.76 449.529 674.156 438.463 683.903Z" fill="#ED9DA0"/>
<path d="M642.184 365.239L525.564 271.943L441.805 413.921V324.338L538.892 230.848L616.639 238.623L642.184 365.239Z" fill="#090814"/>
<path d="M423.687 543.551C423.687 543.551 413.344 559.336 423.687 567.441L425.701 555.496C425.701 555.496 481.048 540.952 539.173 575.464L536.237 588.709C536.237 588.709 545.097 589.985 546.208 581.099C547.319 572.214 548.429 567.771 548.429 567.771C548.429 567.771 499.56 523.344 423.687 543.551Z" fill="#D6D6E3"/>
</g>
<path d="M4.22727 152V117.091H16.4318C18.8636 117.091 20.8693 117.511 22.4489 118.352C24.0284 119.182 25.2045 120.301 25.9773 121.71C26.75 123.108 27.1364 124.659 27.1364 126.364C27.1364 127.864 26.8693 129.102 26.3352 130.08C25.8125 131.057 25.1193 131.83 24.2557 132.398C23.4034 132.966 22.4773 133.386 21.4773 133.659V134C22.5455 134.068 23.6193 134.443 24.6989 135.125C25.7784 135.807 26.6818 136.784 27.4091 138.057C28.1364 139.33 28.5 140.886 28.5 142.727C28.5 144.477 28.1023 146.051 27.3068 147.449C26.5114 148.847 25.2557 149.955 23.5398 150.773C21.8239 151.591 19.5909 152 16.8409 152H4.22727ZM8.45455 148.25H16.8409C19.6023 148.25 21.5625 147.716 22.7216 146.648C23.892 145.568 24.4773 144.261 24.4773 142.727C24.4773 141.545 24.1761 140.455 23.5739 139.455C22.9716 138.443 22.1136 137.636 21 137.034C19.8864 136.42 18.5682 136.114 17.0455 136.114H8.45455V148.25ZM8.45455 132.432H16.2955C17.5682 132.432 18.7159 132.182 19.7386 131.682C20.7727 131.182 21.5909 130.477 22.1932 129.568C22.8068 128.659 23.1136 127.591 23.1136 126.364C23.1136 124.83 22.5795 123.528 21.5114 122.46C20.4432 121.381 18.75 120.841 16.4318 120.841H8.45455V132.432ZM45.8778 152.545C43.3551 152.545 41.179 151.989 39.3494 150.875C37.5312 149.75 36.1278 148.182 35.1392 146.17C34.1619 144.148 33.6733 141.795 33.6733 139.114C33.6733 136.432 34.1619 134.068 35.1392 132.023C36.1278 129.966 37.5028 128.364 39.2642 127.216C41.0369 126.057 43.1051 125.477 45.4688 125.477C46.8324 125.477 48.179 125.705 49.5085 126.159C50.8381 126.614 52.0483 127.352 53.1392 128.375C54.2301 129.386 55.0994 130.727 55.7472 132.398C56.3949 134.068 56.7188 136.125 56.7188 138.568V140.273H36.5369V136.795H52.6278C52.6278 135.318 52.3324 134 51.7415 132.841C51.1619 131.682 50.3324 130.767 49.2528 130.097C48.1847 129.426 46.9233 129.091 45.4688 129.091C43.8665 129.091 42.4801 129.489 41.3097 130.284C40.1506 131.068 39.2585 132.091 38.6335 133.352C38.0085 134.614 37.696 135.966 37.696 137.409V139.727C37.696 141.705 38.0369 143.381 38.7188 144.756C39.4119 146.119 40.3722 147.159 41.5994 147.875C42.8267 148.58 44.2528 148.932 45.8778 148.932C46.9347 148.932 47.8892 148.784 48.7415 148.489C49.6051 148.182 50.3494 147.727 50.9744 147.125C51.5994 146.511 52.0824 145.75 52.4233 144.841L56.3097 145.932C55.9006 147.25 55.2131 148.409 54.2472 149.409C53.2813 150.398 52.0881 151.17 50.6676 151.727C49.2472 152.273 47.6506 152.545 45.8778 152.545ZM66.8608 117.091V152H62.8381V117.091H66.8608ZM74.2287 152V125.818H78.2514V152H74.2287ZM76.2741 121.455C75.4901 121.455 74.8139 121.188 74.2457 120.653C73.6889 120.119 73.4105 119.477 73.4105 118.727C73.4105 117.977 73.6889 117.335 74.2457 116.801C74.8139 116.267 75.4901 116 76.2741 116C77.0582 116 77.7287 116.267 78.2855 116.801C78.8537 117.335 79.1378 117.977 79.1378 118.727C79.1378 119.477 78.8537 120.119 78.2855 120.653C77.7287 121.188 77.0582 121.455 76.2741 121.455ZM96.5966 152.545C94.0739 152.545 91.8977 151.989 90.0682 150.875C88.25 149.75 86.8466 148.182 85.858 146.17C84.8807 144.148 84.392 141.795 84.392 139.114C84.392 136.432 84.8807 134.068 85.858 132.023C86.8466 129.966 88.2216 128.364 89.983 127.216C91.7557 126.057 93.8239 125.477 96.1875 125.477C97.5511 125.477 98.8977 125.705 100.227 126.159C101.557 126.614 102.767 127.352 103.858 128.375C104.949 129.386 105.818 130.727 106.466 132.398C107.114 134.068 107.438 136.125 107.438 138.568V140.273H87.2557V136.795H103.347C103.347 135.318 103.051 134 102.46 132.841C101.881 131.682 101.051 130.767 99.9716 130.097C98.9034 129.426 97.642 129.091 96.1875 129.091C94.5852 129.091 93.1989 129.489 92.0284 130.284C90.8693 131.068 89.9773 132.091 89.3523 133.352C88.7273 134.614 88.4148 135.966 88.4148 137.409V139.727C88.4148 141.705 88.7557 143.381 89.4375 144.756C90.1307 146.119 91.0909 147.159 92.3182 147.875C93.5455 148.58 94.9716 148.932 96.5966 148.932C97.6534 148.932 98.608 148.784 99.4602 148.489C100.324 148.182 101.068 147.727 101.693 147.125C102.318 146.511 102.801 145.75 103.142 144.841L107.028 145.932C106.619 147.25 105.932 148.409 104.966 149.409C104 150.398 102.807 151.17 101.386 151.727C99.9659 152.273 98.3693 152.545 96.5966 152.545ZM134.169 125.818L124.487 152H120.396L110.714 125.818H115.078L122.305 146.682H122.578L129.805 125.818H134.169ZM149.518 152.545C146.996 152.545 144.82 151.989 142.99 150.875C141.172 149.75 139.768 148.182 138.78 146.17C137.803 144.148 137.314 141.795 137.314 139.114C137.314 136.432 137.803 134.068 138.78 132.023C139.768 129.966 141.143 128.364 142.905 127.216C144.678 126.057 146.746 125.477 149.109 125.477C150.473 125.477 151.82 125.705 153.149 126.159C154.479 126.614 155.689 127.352 156.78 128.375C157.871 129.386 158.74 130.727 159.388 132.398C160.036 134.068 160.359 136.125 160.359 138.568V140.273H140.178V136.795H156.268C156.268 135.318 155.973 134 155.382 132.841C154.803 131.682 153.973 130.767 152.893 130.097C151.825 129.426 150.564 129.091 149.109 129.091C147.507 129.091 146.121 129.489 144.95 130.284C143.791 131.068 142.899 132.091 142.274 133.352C141.649 134.614 141.337 135.966 141.337 137.409V139.727C141.337 141.705 141.678 143.381 142.359 144.756C143.053 146.119 144.013 147.159 145.24 147.875C146.467 148.58 147.893 148.932 149.518 148.932C150.575 148.932 151.53 148.784 152.382 148.489C153.246 148.182 153.99 147.727 154.615 147.125C155.24 146.511 155.723 145.75 156.064 144.841L159.95 145.932C159.541 147.25 158.854 148.409 157.888 149.409C156.922 150.398 155.729 151.17 154.308 151.727C152.888 152.273 151.291 152.545 149.518 152.545ZM179.979 152V125.818H184.001V152H179.979ZM182.024 121.455C181.24 121.455 180.564 121.188 179.996 120.653C179.439 120.119 179.161 119.477 179.161 118.727C179.161 117.977 179.439 117.335 179.996 116.801C180.564 116.267 181.24 116 182.024 116C182.808 116 183.479 116.267 184.036 116.801C184.604 117.335 184.888 117.977 184.888 118.727C184.888 119.477 184.604 120.119 184.036 120.653C183.479 121.188 182.808 121.455 182.024 121.455ZM195.392 136.25V152H191.369V125.818H195.256V129.909H195.597C196.21 128.58 197.142 127.511 198.392 126.705C199.642 125.886 201.256 125.477 203.233 125.477C205.006 125.477 206.557 125.841 207.886 126.568C209.216 127.284 210.25 128.375 210.989 129.841C211.727 131.295 212.097 133.136 212.097 135.364V152H208.074V135.636C208.074 133.58 207.54 131.977 206.472 130.83C205.403 129.67 203.938 129.091 202.074 129.091C200.79 129.091 199.642 129.369 198.631 129.926C197.631 130.483 196.841 131.295 196.261 132.364C195.682 133.432 195.392 134.727 195.392 136.25ZM235.538 161.818C234.857 161.818 234.249 161.761 233.714 161.648C233.18 161.545 232.811 161.443 232.607 161.341L233.629 157.795C234.607 158.045 235.47 158.136 236.22 158.068C236.97 158 237.635 157.665 238.214 157.062C238.805 156.472 239.345 155.511 239.834 154.182L240.584 152.136L230.902 125.818H235.266L242.493 146.682H242.766L249.993 125.818H254.357L243.243 155.818C242.743 157.17 242.124 158.29 241.385 159.176C240.646 160.074 239.788 160.739 238.811 161.17C237.845 161.602 236.754 161.818 235.538 161.818ZM269.365 152.545C267.001 152.545 264.928 151.983 263.143 150.858C261.371 149.733 259.984 148.159 258.984 146.136C257.996 144.114 257.501 141.75 257.501 139.045C257.501 136.318 257.996 133.937 258.984 131.903C259.984 129.869 261.371 128.29 263.143 127.165C264.928 126.04 267.001 125.477 269.365 125.477C271.729 125.477 273.797 126.04 275.57 127.165C277.354 128.29 278.74 129.869 279.729 131.903C280.729 133.937 281.229 136.318 281.229 139.045C281.229 141.75 280.729 144.114 279.729 146.136C278.74 148.159 277.354 149.733 275.57 150.858C273.797 151.983 271.729 152.545 269.365 152.545ZM269.365 148.932C271.161 148.932 272.638 148.472 273.797 147.551C274.956 146.631 275.814 145.42 276.371 143.92C276.928 142.42 277.206 140.795 277.206 139.045C277.206 137.295 276.928 135.665 276.371 134.153C275.814 132.642 274.956 131.42 273.797 130.489C272.638 129.557 271.161 129.091 269.365 129.091C267.57 129.091 266.092 129.557 264.933 130.489C263.774 131.42 262.916 132.642 262.359 134.153C261.803 135.665 261.524 137.295 261.524 139.045C261.524 140.795 261.803 142.42 262.359 143.92C262.916 145.42 263.774 146.631 264.933 147.551C266.092 148.472 267.57 148.932 269.365 148.932ZM303.869 141.295V125.818H307.892V152H303.869V147.568H303.597C302.983 148.898 302.028 150.028 300.733 150.96C299.438 151.881 297.801 152.341 295.824 152.341C294.188 152.341 292.733 151.983 291.46 151.267C290.188 150.54 289.188 149.449 288.46 147.994C287.733 146.528 287.369 144.682 287.369 142.455V125.818H291.392V142.182C291.392 144.091 291.926 145.614 292.994 146.75C294.074 147.886 295.449 148.455 297.119 148.455C298.119 148.455 299.136 148.199 300.17 147.688C301.216 147.176 302.091 146.392 302.795 145.335C303.511 144.278 303.869 142.932 303.869 141.295ZM315.26 152V125.818H319.146V129.773H319.419C319.896 128.477 320.76 127.426 322.01 126.619C323.26 125.812 324.669 125.409 326.237 125.409C326.533 125.409 326.902 125.415 327.345 125.426C327.788 125.437 328.124 125.455 328.351 125.477V129.568C328.214 129.534 327.902 129.483 327.413 129.415C326.936 129.335 326.43 129.295 325.896 129.295C324.624 129.295 323.487 129.562 322.487 130.097C321.499 130.619 320.714 131.347 320.135 132.278C319.567 133.199 319.283 134.25 319.283 135.432V152H315.26ZM356.506 152.545C354.324 152.545 352.398 151.994 350.727 150.892C349.057 149.778 347.75 148.21 346.807 146.188C345.864 144.153 345.392 141.75 345.392 138.977C345.392 136.227 345.864 133.841 346.807 131.818C347.75 129.795 349.063 128.233 350.744 127.131C352.426 126.028 354.369 125.477 356.574 125.477C358.278 125.477 359.625 125.761 360.614 126.33C361.614 126.886 362.375 127.523 362.898 128.239C363.432 128.943 363.847 129.523 364.142 129.977H364.483V117.091H368.506V152H364.619V147.977H364.142C363.847 148.455 363.426 149.057 362.881 149.784C362.335 150.5 361.557 151.142 360.545 151.71C359.534 152.267 358.188 152.545 356.506 152.545ZM357.051 148.932C358.665 148.932 360.028 148.511 361.142 147.67C362.256 146.818 363.102 145.642 363.682 144.142C364.261 142.631 364.551 140.886 364.551 138.909C364.551 136.955 364.267 135.244 363.699 133.778C363.131 132.301 362.29 131.153 361.176 130.335C360.063 129.506 358.688 129.091 357.051 129.091C355.347 129.091 353.926 129.528 352.79 130.403C351.665 131.267 350.818 132.443 350.25 133.932C349.693 135.409 349.415 137.068 349.415 138.909C349.415 140.773 349.699 142.466 350.267 143.989C350.847 145.5 351.699 146.705 352.824 147.602C353.96 148.489 355.369 148.932 357.051 148.932ZM376.432 152V125.818H380.318V129.773H380.591C381.068 128.477 381.932 127.426 383.182 126.619C384.432 125.812 385.841 125.409 387.409 125.409C387.705 125.409 388.074 125.415 388.517 125.426C388.96 125.437 389.295 125.455 389.523 125.477V129.568C389.386 129.534 389.074 129.483 388.585 129.415C388.108 129.335 387.602 129.295 387.068 129.295C385.795 129.295 384.659 129.562 383.659 130.097C382.67 130.619 381.886 131.347 381.307 132.278C380.739 133.199 380.455 134.25 380.455 135.432V152H376.432ZM404.472 152.545C401.949 152.545 399.773 151.989 397.943 150.875C396.125 149.75 394.722 148.182 393.733 146.17C392.756 144.148 392.267 141.795 392.267 139.114C392.267 136.432 392.756 134.068 393.733 132.023C394.722 129.966 396.097 128.364 397.858 127.216C399.631 126.057 401.699 125.477 404.062 125.477C405.426 125.477 406.773 125.705 408.102 126.159C409.432 126.614 410.642 127.352 411.733 128.375C412.824 129.386 413.693 130.727 414.341 132.398C414.989 134.068 415.312 136.125 415.312 138.568V140.273H395.131V136.795H411.222C411.222 135.318 410.926 134 410.335 132.841C409.756 131.682 408.926 130.767 407.847 130.097C406.778 129.426 405.517 129.091 404.062 129.091C402.46 129.091 401.074 129.489 399.903 130.284C398.744 131.068 397.852 132.091 397.227 133.352C396.602 134.614 396.29 135.966 396.29 137.409V139.727C396.29 141.705 396.631 143.381 397.312 144.756C398.006 146.119 398.966 147.159 400.193 147.875C401.42 148.58 402.847 148.932 404.472 148.932C405.528 148.932 406.483 148.784 407.335 148.489C408.199 148.182 408.943 147.727 409.568 147.125C410.193 146.511 410.676 145.75 411.017 144.841L414.903 145.932C414.494 147.25 413.807 148.409 412.841 149.409C411.875 150.398 410.682 151.17 409.261 151.727C407.841 152.273 406.244 152.545 404.472 152.545ZM429.136 152.614C427.477 152.614 425.972 152.301 424.619 151.676C423.267 151.04 422.193 150.125 421.398 148.932C420.602 147.727 420.205 146.273 420.205 144.568C420.205 143.068 420.5 141.852 421.091 140.92C421.682 139.977 422.472 139.239 423.46 138.705C424.449 138.17 425.54 137.773 426.733 137.511C427.938 137.239 429.148 137.023 430.364 136.864C431.955 136.659 433.244 136.506 434.233 136.403C435.233 136.29 435.96 136.102 436.415 135.841C436.881 135.58 437.114 135.125 437.114 134.477V134.341C437.114 132.659 436.653 131.352 435.733 130.42C434.824 129.489 433.443 129.023 431.591 129.023C429.67 129.023 428.165 129.443 427.074 130.284C425.983 131.125 425.216 132.023 424.773 132.977L420.955 131.614C421.636 130.023 422.545 128.784 423.682 127.898C424.83 127 426.08 126.375 427.432 126.023C428.795 125.659 430.136 125.477 431.455 125.477C432.295 125.477 433.261 125.58 434.352 125.784C435.455 125.977 436.517 126.381 437.54 126.994C438.574 127.608 439.432 128.534 440.114 129.773C440.795 131.011 441.136 132.67 441.136 134.75V152H437.114V148.455H436.909C436.636 149.023 436.182 149.631 435.545 150.278C434.909 150.926 434.063 151.477 433.006 151.932C431.949 152.386 430.659 152.614 429.136 152.614ZM429.75 149C431.341 149 432.682 148.688 433.773 148.062C434.875 147.438 435.705 146.631 436.261 145.642C436.83 144.653 437.114 143.614 437.114 142.523V138.841C436.943 139.045 436.568 139.233 435.989 139.403C435.42 139.562 434.761 139.705 434.011 139.83C433.273 139.943 432.551 140.045 431.847 140.136C431.153 140.216 430.591 140.284 430.159 140.341C429.114 140.477 428.136 140.699 427.227 141.006C426.33 141.301 425.602 141.75 425.045 142.352C424.5 142.943 424.227 143.75 424.227 144.773C424.227 146.17 424.744 147.227 425.778 147.943C426.824 148.648 428.148 149 429.75 149ZM448.479 152V125.818H452.365V129.909H452.706C453.251 128.511 454.132 127.426 455.348 126.653C456.564 125.869 458.024 125.477 459.729 125.477C461.456 125.477 462.893 125.869 464.041 126.653C465.2 127.426 466.104 128.511 466.751 129.909H467.024C467.695 128.557 468.7 127.483 470.041 126.688C471.382 125.881 472.99 125.477 474.865 125.477C477.206 125.477 479.121 126.21 480.609 127.676C482.098 129.131 482.842 131.398 482.842 134.477V152H478.82V134.477C478.82 132.545 478.291 131.165 477.234 130.335C476.178 129.506 474.933 129.091 473.501 129.091C471.661 129.091 470.234 129.648 469.223 130.761C468.212 131.864 467.706 133.261 467.706 134.955V152H463.615V134.068C463.615 132.58 463.132 131.381 462.166 130.472C461.2 129.551 459.956 129.091 458.433 129.091C457.388 129.091 456.411 129.369 455.501 129.926C454.604 130.483 453.876 131.256 453.32 132.244C452.774 133.222 452.501 134.352 452.501 135.636V152H448.479ZM495.516 117.091L495.175 142.182H491.22L490.879 117.091H495.516ZM493.197 152.273C492.357 152.273 491.635 151.972 491.033 151.369C490.43 150.767 490.129 150.045 490.129 149.205C490.129 148.364 490.43 147.642 491.033 147.04C491.635 146.437 492.357 146.136 493.197 146.136C494.038 146.136 494.76 146.437 495.362 147.04C495.964 147.642 496.266 148.364 496.266 149.205C496.266 149.761 496.124 150.273 495.839 150.739C495.567 151.205 495.197 151.58 494.732 151.864C494.277 152.136 493.766 152.273 493.197 152.273Z" fill="white"/>
<defs>
<clipPath id="clip0_9_2">
<rect width="466.1" height="757.339" fill="white" transform="translate(355 201)"/>
</clipPath>
</defs>
</svg>
